<?xml version="1.0" encoding="UTF-8" standalone="no"?>
<!-- Created with Inkscape (http://www.inkscape.org/) -->

<svg
   xmlns:dc="http://purl.org/dc/elements/1.1/"
   xmlns:cc="http://creativecommons.org/ns#"
   xmlns:rdf="http://www.w3.org/1999/02/22-rdf-syntax-ns#"
   xmlns:svg="http://www.w3.org/2000/svg"
   xmlns="http://www.w3.org/2000/svg"
   xmlns:sodipodi="http://sodipodi.sourceforge.net/DTD/sodipodi-0.dtd"
   xmlns:inkscape="http://www.inkscape.org/namespaces/inkscape"
   id="svg3039"
   version="1.1"
   inkscape:version="0.48.3.1 r9886"
   width="315"
   height="456"
   sodipodi:docname="inle.svg">
  <title
     id="title3096">Inle studios logo</title>
  <metadata
     id="metadata3045">
    <rdf:RDF>
      <cc:Work
         rdf:about="">
        <dc:format>image/svg+xml</dc:format>
        <dc:type
           rdf:resource="http://purl.org/dc/dcmitype/StillImage" />
        <dc:title>Inle studios logo</dc:title>
        <cc:license
           rdf:resource="http://creativecommons.org/licenses/by-sa/3.0/" />
        <dc:creator>
          <cc:Agent>
            <dc:title>Silverweed</dc:title>
          </cc:Agent>
        </dc:creator>
      </cc:Work>
      <cc:License
         rdf:about="http://creativecommons.org/licenses/by-sa/3.0/">
        <cc:permits
           rdf:resource="http://creativecommons.org/ns#Reproduction" />
        <cc:permits
           rdf:resource="http://creativecommons.org/ns#Distribution" />
        <cc:requires
           rdf:resource="http://creativecommons.org/ns#Notice" />
        <cc:requires
           rdf:resource="http://creativecommons.org/ns#Attribution" />
        <cc:permits
           rdf:resource="http://creativecommons.org/ns#DerivativeWorks" />
        <cc:requires
           rdf:resource="http://creativecommons.org/ns#ShareAlike" />
      </cc:License>
    </rdf:RDF>
  </metadata>
  <defs
     id="defs3043" />
  <sodipodi:namedview
     pagecolor="#ffffff"
     bordercolor="#666666"
     borderopacity="1"
     objecttolerance="10"
     gridtolerance="10"
     guidetolerance="10"
     inkscape:pageopacity="0"
     inkscape:pageshadow="2"
     inkscape:window-width="1918"
     inkscape:window-height="1059"
     id="namedview3041"
     showgrid="false"
     inkscape:zoom="1.2077756"
     inkscape:cx="224.8354"
     inkscape:cy="299.29131"
     inkscape:window-x="0"
     inkscape:window-y="19"
     inkscape:window-maximized="0"
     inkscape:current-layer="svg3039" />
  <g
     inkscape:groupmode="layer"
     id="layer1"
     inkscape:label="Layer" />
  <path
     style="fill:#000000"
     d="M 101.08194,376.5569 C 70.003852,339.92424 44.481726,309.65098 44.366103,309.28299 44.25048,308.915 56.3694,294.11916 71.297038,276.40334 87.421492,257.26718 98.261388,243.73203 98.002605,243.05765 97.763029,242.43332 83.40714,217.59293 66.100628,187.85678 48.794115,158.12061 34.634242,133.45972 34.634242,133.05477 c 0,-1.75179 57.102601,-109.790672 57.461711,-108.718312 0.219006,0.653986 10.524627,48.880046 22.901387,107.169022 12.37675,58.28897 22.66913,106.15944 22.87195,106.37882 0.20282,0.21938 9.26882,0.54128 20.14667,0.71535 l 19.77789,0.31647 0.46379,-1.95729 c 1.23096,-5.19493 45.1562,-215.533343 45.17476,-216.321786 0.0209,-0.88719 10.44075,19.980524 40.96595,82.041956 l 15.14284,30.78725 -30.135,55.96969 c -16.57425,30.78334 -30.12864,56.42317 -30.12086,56.97741 0.007,0.55424 10.98391,15.53065 24.39142,33.28093 23.9303,31.68145 24.34979,32.3039 22.8777,33.9467 -0.82476,0.92041 -24.88906,29.61742 -53.47621,63.77111 -28.58714,34.1537 -52.76729,62.91933 -53.73366,63.92364 l -1.75703,1.82601 -56.50561,-66.60484 0,0 z m 33.63086,-29.98432 c -3.30591,-4.20864 -35.801941,-38.26692 -36.165112,-37.90375 -0.396799,0.3968 -4.326339,28.03061 -4.02285,28.29 0.498961,0.42647 38.532492,10.93774 39.773982,10.99228 1.3587,0.0597 1.40987,-0.1107 0.41398,-1.37853 z m 68.53958,-5.30949 c 12.14623,-2.67394 19.2831,-4.60988 19.07702,-5.1748 -0.18107,-0.49642 -1.7694,-6.77081 -3.5296,-13.94309 -1.7602,-7.17227 -3.42118,-13.0405 -3.69105,-13.0405 -0.26988,0 -7.0343,6.6134 -15.03206,14.69644 -15.48134,15.64643 -20.2843,21.73417 -17.14732,21.73417 0.50421,0 9.64957,-1.92249 20.32301,-4.27222 z"
     id="path3075"
     inkscape:connector-curvature="0" />
</svg>
